<svg xmlns="http://www.w3.org/2000/svg" width="100%" height="100%" preserveAspectRatio="xMidYMid meet" viewBox="0.0000025451756755501265 -5.432921668102608e-8 300 76.4171371459961" overflow="visible"><defs id="SvgjsDefs1052"></defs><g id="SvgjsG1053" transform="scale(0.5883962734155689)" opacity="1"><g id="SvgjsG1054" class="EDdH-GwvVs" transform="translate(-0.9249828012113143, -1.2282243683617964) scale(1.3233004305773421)" light-content="false" non-strokable="false" fill="#ffffff"><path d="M47 1.732l37.301 21.536a6 6 0 0 1 3 5.196v43.072a6 6 0 0 1-3 5.196L47 98.268a6 6 0 0 1-6 0L3.699 76.732a6 6 0 0 1-3-5.196V28.464a6 6 0 0 1 3-5.196L41 1.732a6 6 0 0 1 6 0z"></path></g><g id="SvgjsG1055" class="kG7XTmjYFF" transform="translate(22.606406576314686, 30.24366582898684) scale(0.6938696580088436)" light-content="true" non-strokable="false" fill="#0a0a0a"><path d="M57.422 47.746v35.066c0 6.684-5.426 12.109-12.109 12.109s-12.109-5.426-12.109-12.109 5.426-12.109 12.109-12.109c1.223 0 2.402.18 3.516.52V35.168a4.296 4.296 0 0 1 3.117-4.13l37.5-10.714a4.296 4.296 0 0 1 3.77.699 4.303 4.303 0 0 1 1.706 3.433v42.73c0 6.684-5.426 12.11-12.109 12.11s-12.109-5.426-12.109-12.11 5.426-12.109 12.11-12.109c1.222 0 2.402.18 3.515.52V39.074zM29.297 19.492v35.195c0 6.684-5.426 12.109-12.109 12.109S5.079 61.37 5.079 54.687s5.426-12.109 12.109-12.109c1.223 0 2.402.18 3.516.52V10.18a5.1 5.1 0 0 1 1.492-3.61A5.114 5.114 0 0 1 25.8 5.078h.059a5.105 5.105 0 0 1 4.55 2.805c1.133 2.035 3.41 4.8 7.598 7.101 2.895 1.59 4.66 3.504 5.727 5.446 1.805 3.277 1.7 6.796.766 9.847-1.184 3.86-3.676 6.824-3.72 6.871a4.296 4.296 0 0 1-6.566-5.539s.973-1.18 1.696-2.844c.48-1.12.98-2.523.449-3.867-.352-.894-1.18-1.66-2.488-2.383a32.25 32.25 0 0 1-4.575-3.023z" fill-rule="evenodd"></path></g><rect id="SvgjsRect1056" width="2" height="129.87359999999998" fill="#ffffff" transform="translate(147.1004691333894, 0) scale(1)" light-content="false"></rect><g id="SvgjsG1057" class="text" transform="translate(344.5304618091707, 61.12179877929687) scale(1)" light-content="false" fill="#ffffff"><path d="M-162.93 0L-137.97 0L-137.97 -2.28L-160.47 -2.28L-160.47 -42.3L-162.93 -42.3Z M-131.31 0L-128.85 0L-128.85 -42.3L-131.31 -42.3Z M-80.67 -42.3L-97.83 -9L-115.17 -42.3L-117.33 -42.3L-117.33 0L-114.87 0L-114.93 -36.78L-98.85 -6.6L-96.81 -6.6L-80.85 -37.02L-80.91 0L-78.45 0L-78.45 -42.3Z M-34.53 0L-31.89 0L-50.07 -42.3L-52.47 -42.3L-70.65 0L-68.07 0L-63.03 -11.7L-39.57 -11.7ZM-62.01 -14.1L-51.27 -39.06L-40.59 -14.1Z M27.33 -42.3L10.17 -9L-7.17 -42.3L-9.33 -42.3L-9.33 0L-6.87 0L-6.93 -36.78L9.15 -6.6L11.19 -6.6L27.15 -37.02L27.09 0L29.55 0L29.55 -42.3Z M44.82 -3.69C47.52 -0.91 51.51 0.48 56.79 0.48C62.03 0.48 66.01 -0.91 68.73 -3.69C71.45 -6.47 72.81 -10.58 72.81 -16.02L72.81 -42.3L70.29 -42.3L70.29 -15.6C70.29 -11.08 69.15 -7.68 66.87 -5.4C64.59 -3.12 61.23 -1.98 56.79 -1.98C47.75 -1.98 43.23 -6.52 43.23 -15.6L43.23 -42.3L40.77 -42.3L40.77 -16.02C40.77 -10.58 42.12 -6.47 44.82 -3.69Z M87.99 -0.9C90.47 0.02 93.37 0.48 96.69 0.48C99.57 0.48 102.1 0 104.28 -0.96C106.46 -1.92 108.15 -3.26 109.35 -4.98C110.55 -6.7 111.15 -8.68 111.15 -10.92C111.15 -13.28 110.52 -15.16 109.26 -16.56C108 -17.96 106.47 -18.99 104.67 -19.65C102.87 -20.31 100.53 -20.96 97.65 -21.6L95.07 -22.2C91.75 -23.04 89.17 -24.07 87.33 -25.29C85.49 -26.51 84.57 -28.4 84.57 -30.96C84.57 -33.92 85.63 -36.22 87.75 -37.86C89.87 -39.5 92.83 -40.32 96.63 -40.32C99.15 -40.32 101.44 -39.9 103.5 -39.06C105.56 -38.22 107.59 -36.86 109.59 -34.98L110.85 -37.08C107.17 -40.88 102.43 -42.78 96.63 -42.78C93.67 -42.78 91.08 -42.3 88.86 -41.34C86.64 -40.38 84.94 -39.02 83.76 -37.26C82.58 -35.5 81.99 -33.44 81.99 -31.08C81.99 -28.44 82.72 -26.35 84.18 -24.81C85.64 -23.27 87.3 -22.17 89.16 -21.51C91.02 -20.85 93.67 -20.1 97.11 -19.26C99.67 -18.66 101.71 -18.09 103.23 -17.55C104.75 -17.01 106.03 -16.22 107.07 -15.18C108.11 -14.14 108.63 -12.78 108.63 -11.1C108.63 -8.18 107.59 -5.93 105.51 -4.35C103.43 -2.77 100.49 -1.98 96.69 -1.98C93.61 -1.98 91.01 -2.38 88.89 -3.18C86.77 -3.98 84.65 -5.36 82.53 -7.32L81.27 -5.22C83.27 -3.26 85.51 -1.82 87.99 -0.9Z M119.85 0L122.31 0L122.31 -42.3L119.85 -42.3Z M140.88 -2.1C143.7 -0.38 147.05 0.48 150.93 0.48C156.85 0.48 161.65 -1.42 165.33 -5.22L164.07 -7.32C161.99 -5.4 159.92 -4.03 157.86 -3.21C155.8 -2.39 153.47 -1.98 150.87 -1.98C145.75 -1.98 141.78 -3.66 138.96 -7.02C136.14 -10.38 134.73 -15.1 134.73 -21.18C134.73 -27.22 136.14 -31.92 138.96 -35.28C141.78 -38.64 145.75 -40.32 150.87 -40.32C153.47 -40.32 155.8 -39.91 157.86 -39.09C159.92 -38.27 161.99 -36.9 164.07 -34.98L165.33 -37.08C161.65 -40.88 156.85 -42.78 150.93 -42.78C147.05 -42.78 143.7 -41.92 140.88 -40.2C138.06 -38.48 135.89 -36 134.37 -32.76C132.85 -29.52 132.09 -25.66 132.09 -21.18C132.09 -16.7 132.85 -12.83 134.37 -9.57C135.89 -6.31 138.06 -3.82 140.88 -2.1Z"></path></g><g id="SvgjsG1058" class="text" transform="translate(345.16047584725663, 106.13180068664549) scale(1)" light-content="false" fill="#ffffff"><path d="M-112.03 -21.15L-120.28 -5.13L-128.65 -21.15L-130.21 -21.15L-130.21 0L-128.44 0L-128.47 -17.34L-121 -3.33L-119.62 -3.33L-112.21 -17.46L-112.21 0L-110.47 0L-110.47 -21.15Z M-93.37 -7.05L-93.37 -7.86C-93.37 -10.08 -93.91 -11.81 -94.99 -13.05C-96.07 -14.29 -97.56 -14.91 -99.46 -14.91C-100.81 -14.91 -101.99 -14.59 -103.02 -13.96C-104.05 -13.33 -104.85 -12.45 -105.42 -11.29C-105.99 -10.14 -106.27 -8.82 -106.27 -7.32C-106.27 -4.98 -105.64 -3.14 -104.35 -1.8C-103.07 -0.46 -101.32 0.21 -99.1 0.21C-98.07 0.21 -97.05 0.03 -96.06 -0.33C-95.07 -0.69 -94.26 -1.17 -93.61 -1.77L-94.33 -3.21C-95.76 -2.01 -97.35 -1.41 -99.1 -1.41C-100.76 -1.41 -102.04 -1.9 -102.94 -2.86C-103.84 -3.83 -104.32 -5.23 -104.38 -7.05ZM-102.82 -12.09C-101.98 -12.97 -100.87 -13.41 -99.46 -13.41C-98.08 -13.41 -97.02 -12.97 -96.25 -12.1C-95.49 -11.23 -95.1 -10 -95.05 -8.4L-104.32 -8.4C-104.16 -9.98 -103.66 -11.21 -102.82 -12.09Z M-89.56 0L-87.73 0L-87.73 -21.15L-89.56 -21.15Z M-80.64 -0.72C-79.63 -0.1 -78.46 0.21 -77.11 0.21C-75.79 0.21 -74.62 -0.1 -73.6 -0.72C-72.58 -1.34 -71.8 -2.22 -71.25 -3.36C-70.7 -4.5 -70.42 -5.83 -70.42 -7.35C-70.42 -8.87 -70.7 -10.2 -71.25 -11.34C-71.8 -12.48 -72.58 -13.36 -73.6 -13.98C-74.62 -14.6 -75.79 -14.91 -77.11 -14.91C-78.45 -14.91 -79.63 -14.6 -80.64 -13.98C-81.65 -13.36 -82.44 -12.48 -82.99 -11.34C-83.55 -10.2 -83.83 -8.87 -83.83 -7.35C-83.84 -5.83 -83.56 -4.5 -82.99 -3.36C-82.44 -2.22 -81.65 -1.34 -80.64 -0.72ZM-73.57 -2.94C-74.41 -1.92 -75.6 -1.41 -77.14 -1.41C-78.68 -1.41 -79.87 -1.92 -80.68 -2.94C-81.51 -3.96 -81.91 -5.43 -81.91 -7.35C-81.91 -9.23 -81.49 -10.69 -80.65 -11.74C-79.81 -12.79 -78.64 -13.32 -77.11 -13.32C-75.61 -13.32 -74.44 -12.79 -73.59 -11.74C-72.74 -10.69 -72.31 -9.23 -72.31 -7.35C-72.31 -5.43 -72.73 -3.96 -73.57 -2.94Z M-54.16 -21.15L-55.99 -21.15L-55.99 -11.91C-56.43 -12.89 -57.09 -13.63 -57.94 -14.14C-58.8 -14.65 -59.82 -14.91 -61 -14.91C-62.28 -14.91 -63.41 -14.6 -64.39 -13.98C-65.37 -13.36 -66.13 -12.48 -66.67 -11.35C-67.21 -10.23 -67.48 -8.91 -67.48 -7.41C-67.48 -5.89 -67.21 -4.55 -66.67 -3.4C-66.14 -2.26 -65.38 -1.36 -64.39 -0.73C-63.41 -0.1 -62.29 0.21 -61 0.21C-59.82 0.21 -58.8 -0.04 -57.94 -0.55C-57.09 -1.06 -56.44 -1.81 -55.99 -2.79L-55.99 0L-54.16 0ZM-57.24 -2.95C-58.07 -1.93 -59.25 -1.41 -60.76 -1.41C-62.29 -1.41 -63.46 -1.93 -64.3 -2.98C-65.14 -4.03 -65.56 -5.51 -65.56 -7.41C-65.56 -9.29 -65.14 -10.74 -64.3 -11.77C-63.46 -12.81 -62.27 -13.32 -60.73 -13.32C-59.22 -13.32 -58.05 -12.8 -57.22 -11.76C-56.4 -10.72 -55.99 -9.25 -55.99 -7.35C-55.99 -5.45 -56.41 -3.98 -57.24 -2.95Z M-49.36 0L-47.53 0L-47.53 -14.55L-49.36 -14.55ZM-47.74 -16.5L-43.81 -22.53L-46.12 -22.53L-49.12 -16.5Z M-33 -13.53C-33.87 -14.45 -35.19 -14.91 -36.94 -14.91C-37.93 -14.91 -38.92 -14.75 -39.94 -14.43C-40.96 -14.11 -41.85 -13.68 -42.58 -13.14L-41.89 -11.73C-41.03 -12.29 -40.2 -12.69 -39.39 -12.94C-38.58 -13.2 -37.73 -13.32 -36.85 -13.32C-35.7 -13.32 -34.84 -13.02 -34.3 -12.4C-33.76 -11.79 -33.49 -10.83 -33.49 -9.51L-33.49 -8.4L-34.12 -8.4C-36.45 -8.4 -38.26 -8.27 -39.55 -8.01C-40.85 -7.75 -41.79 -7.32 -42.34 -6.72C-42.9 -6.12 -43.18 -5.28 -43.18 -4.2C-43.18 -3.38 -42.96 -2.63 -42.51 -1.95C-42.06 -1.27 -41.44 -0.74 -40.66 -0.36C-39.88 0.02 -39.02 0.21 -38.08 0.21C-37.05 0.21 -36.13 -0.04 -35.32 -0.52C-34.53 -1.02 -33.91 -1.71 -33.49 -2.61L-33.49 0L-31.69 0L-31.69 -9.36C-31.69 -11.22 -32.13 -12.61 -33 -13.53ZM-34.74 -2.7C-35.57 -1.82 -36.63 -1.38 -37.93 -1.38C-38.87 -1.38 -39.67 -1.65 -40.3 -2.2C-40.94 -2.76 -41.26 -3.45 -41.26 -4.29C-41.26 -5.03 -41.05 -5.59 -40.63 -5.98C-40.21 -6.37 -39.49 -6.65 -38.47 -6.81C-37.45 -6.97 -35.98 -7.05 -34.06 -7.05L-33.49 -7.05L-33.49 -6.06C-33.49 -4.7 -33.91 -3.58 -34.74 -2.7Z M-27.82 -1.74C-26.37 -0.44 -24.49 0.21 -22.18 0.21C-20.46 0.21 -19.1 -0.16 -18.09 -0.9C-17.08 -1.64 -16.57 -2.63 -16.57 -3.87C-16.57 -5.87 -17.89 -7.17 -20.53 -7.77L-23.02 -8.37C-23.84 -8.57 -24.45 -8.87 -24.84 -9.27C-25.23 -9.67 -25.42 -10.19 -25.42 -10.83C-25.42 -11.61 -25.12 -12.22 -24.49 -12.66C-23.87 -13.1 -23.02 -13.32 -21.91 -13.32C-21.09 -13.32 -20.33 -13.18 -19.62 -12.9C-18.91 -12.62 -18.22 -12.18 -17.53 -11.58L-16.84 -12.99C-17.43 -13.61 -18.16 -14.08 -19.05 -14.41C-19.94 -14.74 -20.89 -14.91 -21.91 -14.91C-23.55 -14.91 -24.86 -14.52 -25.84 -13.74C-26.82 -12.96 -27.31 -11.94 -27.31 -10.68C-27.31 -9.74 -26.98 -8.92 -26.31 -8.23C-25.64 -7.54 -24.71 -7.06 -23.53 -6.78L-21.07 -6.21C-20.16 -6.01 -19.48 -5.71 -19.06 -5.32C-18.64 -4.93 -18.43 -4.42 -18.43 -3.78C-18.43 -3.02 -18.75 -2.43 -19.38 -2.01C-20.01 -1.59 -20.91 -1.38 -22.09 -1.38C-23.11 -1.38 -24.01 -1.51 -24.79 -1.78C-25.57 -2.05 -26.35 -2.51 -27.13 -3.15Z M5.21 -13.96C4.23 -14.59 3.09 -14.91 1.82 -14.91C0.64 -14.91 -0.38 -14.65 -1.25 -14.14C-2.1 -13.63 -2.75 -12.89 -3.19 -11.91L-3.19 -14.55L-5.02 -14.55L-5.02 5.4L-3.19 5.4L-3.19 -2.79C-2.75 -1.81 -2.11 -1.06 -1.25 -0.55C-0.38 -0.04 0.63 0.21 1.82 0.21C3.09 0.21 4.22 -0.1 5.21 -0.72C6.18 -1.34 6.94 -2.21 7.49 -3.34C8.02 -4.48 8.3 -5.79 8.3 -7.29C8.3 -8.81 8.02 -10.14 7.49 -11.29C6.94 -12.45 6.18 -13.33 5.21 -13.96ZM5.13 -2.95C4.28 -1.93 3.09 -1.41 1.55 -1.41C0.02 -1.41 -1.15 -1.92 -1.96 -2.95C-2.78 -3.98 -3.19 -5.45 -3.19 -7.35C-3.19 -9.25 -2.78 -10.72 -1.95 -11.76C-1.12 -12.8 0.05 -13.32 1.58 -13.32C3.09 -13.32 4.28 -12.79 5.13 -11.73C5.98 -10.67 6.4 -9.19 6.4 -7.29C6.4 -5.43 5.98 -3.98 5.13 -2.95Z M21.87 -13.53C21 -14.45 19.68 -14.91 17.92 -14.91C16.94 -14.91 15.94 -14.75 14.92 -14.43C13.9 -14.11 13.02 -13.68 12.28 -13.14L12.97 -11.73C13.84 -12.29 14.67 -12.69 15.48 -12.94C16.29 -13.2 17.14 -13.32 18.01 -13.32C19.17 -13.32 20.02 -13.02 20.57 -12.4C21.1 -11.79 21.37 -10.83 21.37 -9.51L21.37 -8.4L20.74 -8.4C18.42 -8.4 16.61 -8.27 15.31 -8.01C14.02 -7.75 13.08 -7.32 12.52 -6.72C11.97 -6.12 11.68 -5.28 11.68 -4.2C11.68 -3.38 11.91 -2.63 12.36 -1.95C12.81 -1.27 13.42 -0.74 14.2 -0.36C14.98 0.02 15.85 0.21 16.78 0.21C17.82 0.21 18.74 -0.04 19.54 -0.52C20.34 -1.02 20.96 -1.71 21.37 -2.61L21.37 0L23.17 0L23.17 -9.36C23.17 -11.22 22.74 -12.61 21.87 -13.53ZM20.13 -2.7C19.3 -1.82 18.24 -1.38 16.93 -1.38C16 -1.38 15.2 -1.65 14.56 -2.2C13.93 -2.76 13.6 -3.45 13.6 -4.29C13.6 -5.03 13.81 -5.59 14.23 -5.98C14.65 -6.37 15.37 -6.65 16.39 -6.81C17.42 -6.97 18.88 -7.05 20.8 -7.05L21.37 -7.05L21.37 -6.06C21.37 -4.7 20.96 -3.58 20.13 -2.7Z M35.57 -13.32L35.42 -14.91L34.64 -14.85C33.44 -14.75 32.43 -14.47 31.62 -14.02C30.81 -13.57 30.19 -12.9 29.75 -12L29.75 -14.55L27.95 -14.55L27.95 0L29.78 0L29.78 -8.52C29.78 -9.76 30.13 -10.81 30.84 -11.67C31.55 -12.53 32.69 -13.04 34.28 -13.2Z M47.67 -13.53C46.8 -14.45 45.48 -14.91 43.73 -14.91C42.74 -14.91 41.75 -14.75 40.73 -14.43C39.71 -14.11 38.82 -13.68 38.09 -13.14L38.78 -11.73C39.64 -12.29 40.47 -12.69 41.28 -12.94C42.09 -13.2 42.94 -13.32 43.82 -13.32C44.97 -13.32 45.83 -13.02 46.36 -12.4C46.91 -11.79 47.18 -10.83 47.18 -9.51L47.18 -8.4L46.55 -8.4C44.22 -8.4 42.41 -8.27 41.11 -8.01C39.82 -7.75 38.88 -7.32 38.32 -6.72C37.77 -6.12 37.49 -5.28 37.49 -4.2C37.49 -3.38 37.71 -2.63 38.16 -1.95C38.61 -1.27 39.23 -0.74 40 -0.36C40.78 0.02 41.65 0.21 42.59 0.21C43.62 0.21 44.54 -0.04 45.35 -0.52C46.14 -1.02 46.76 -1.71 47.18 -2.61L47.18 0L48.97 0L48.97 -9.36C48.97 -11.22 48.54 -12.61 47.67 -13.53ZM45.93 -2.7C45.1 -1.82 44.04 -1.38 42.74 -1.38C41.8 -1.38 41 -1.65 40.36 -2.2C39.73 -2.76 39.41 -3.45 39.41 -4.29C39.41 -5.03 39.61 -5.59 40.03 -5.98C40.46 -6.37 41.18 -6.65 42.2 -6.81C43.22 -6.97 44.68 -7.05 46.61 -7.05L47.18 -7.05L47.18 -6.06C47.18 -4.7 46.76 -3.58 45.93 -2.7Z M68.51 -1.44C68.08 -1.38 67.65 -1.35 67.21 -1.35C66.11 -1.35 65.28 -1.66 64.71 -2.28C64.14 -2.9 63.86 -3.82 63.86 -5.04L63.86 -13.08L68.11 -13.08L68.11 -14.55L63.86 -14.55L63.86 -19.05L62.03 -19.05L62.03 -14.55L59.15 -14.55L59.15 -13.08L62.03 -13.08L62.03 -4.8C62.03 -3.26 62.44 -2.04 63.29 -1.15C64.13 -0.26 65.36 0.18 67.01 0.18C67.5 0.18 67.97 0.15 68.41 0.09Z M73.38 -0.72C74.39 -0.1 75.56 0.21 76.91 0.21C78.22 0.21 79.4 -0.1 80.42 -0.72C81.44 -1.34 82.22 -2.22 82.77 -3.36C83.32 -4.5 83.6 -5.83 83.6 -7.35C83.6 -8.87 83.32 -10.2 82.77 -11.34C82.22 -12.48 81.44 -13.36 80.42 -13.98C79.4 -14.6 78.22 -14.91 76.91 -14.91C75.57 -14.91 74.39 -14.6 73.38 -13.98C72.37 -13.36 71.58 -12.48 71.03 -11.34C70.47 -10.2 70.19 -8.87 70.19 -7.35C70.18 -5.83 70.46 -4.5 71.03 -3.36C71.58 -2.22 72.37 -1.34 73.38 -0.72ZM80.44 -2.94C79.61 -1.92 78.42 -1.41 76.88 -1.41C75.34 -1.41 74.15 -1.92 73.34 -2.94C72.51 -3.96 72.11 -5.43 72.11 -7.35C72.11 -9.23 72.53 -10.69 73.36 -11.74C74.21 -12.79 75.38 -13.32 76.91 -13.32C78.41 -13.32 79.58 -12.79 80.43 -11.74C81.28 -10.69 81.71 -9.23 81.71 -7.35C81.71 -5.43 81.29 -3.96 80.44 -2.94Z M99.85 -21.15L98.03 -21.15L98.03 -11.91C97.59 -12.89 96.93 -13.63 96.08 -14.14C95.22 -14.65 94.2 -14.91 93.02 -14.91C91.74 -14.91 90.61 -14.6 89.63 -13.98C88.65 -13.36 87.89 -12.48 87.35 -11.35C86.81 -10.23 86.54 -8.91 86.54 -7.41C86.54 -5.89 86.81 -4.55 87.35 -3.4C87.89 -2.26 88.64 -1.36 89.63 -0.73C90.61 -0.1 91.73 0.21 93.02 0.21C94.2 0.21 95.22 -0.04 96.08 -0.55C96.93 -1.06 97.58 -1.81 98.03 -2.79L98.03 0L99.85 0ZM96.78 -2.95C95.95 -1.93 94.77 -1.41 93.26 -1.41C91.73 -1.41 90.56 -1.93 89.72 -2.98C88.88 -4.03 88.46 -5.51 88.46 -7.41C88.46 -9.29 88.88 -10.74 89.72 -11.77C90.56 -12.81 91.75 -13.32 93.29 -13.32C94.8 -13.32 95.97 -12.8 96.8 -11.76C97.62 -10.72 98.03 -9.25 98.03 -7.35C98.03 -5.45 97.61 -3.98 96.78 -2.95Z M106.92 -0.72C107.93 -0.1 109.1 0.21 110.45 0.21C111.76 0.21 112.93 -0.1 113.96 -0.72C114.98 -1.34 115.76 -2.22 116.31 -3.36C116.86 -4.5 117.14 -5.83 117.14 -7.35C117.14 -8.87 116.86 -10.2 116.31 -11.34C115.76 -12.48 114.98 -13.36 113.96 -13.98C112.93 -14.6 111.76 -14.91 110.45 -14.91C109.11 -14.91 107.93 -14.6 106.92 -13.98C105.91 -13.36 105.12 -12.48 104.57 -11.34C104.01 -10.2 103.73 -8.87 103.73 -7.35C103.72 -5.83 104 -4.5 104.57 -3.36C105.12 -2.22 105.91 -1.34 106.92 -0.72ZM113.98 -2.94C113.15 -1.92 111.96 -1.41 110.42 -1.41C108.88 -1.41 107.69 -1.92 106.88 -2.94C106.05 -3.96 105.65 -5.43 105.65 -7.35C105.65 -9.23 106.07 -10.69 106.9 -11.74C107.74 -12.79 108.92 -13.32 110.45 -13.32C111.95 -13.32 113.12 -12.79 113.97 -11.74C114.82 -10.69 115.24 -9.23 115.24 -7.35C115.24 -5.43 114.82 -3.96 113.98 -2.94Z M120.1 -1.74C121.56 -0.44 123.44 0.21 125.74 0.21C127.47 0.21 128.83 -0.16 129.84 -0.9C130.85 -1.64 131.35 -2.63 131.35 -3.87C131.35 -5.87 130.04 -7.17 127.4 -7.77L124.9 -8.37C124.09 -8.57 123.48 -8.87 123.09 -9.27C122.7 -9.67 122.51 -10.19 122.51 -10.83C122.51 -11.61 122.81 -12.22 123.43 -12.66C124.06 -13.1 124.91 -13.32 126.01 -13.32C126.84 -13.32 127.6 -13.18 128.31 -12.9C129.02 -12.62 129.71 -12.18 130.39 -11.58L131.08 -12.99C130.5 -13.61 129.77 -14.08 128.88 -14.41C127.99 -14.74 127.04 -14.91 126.01 -14.91C124.38 -14.91 123.07 -14.52 122.09 -13.74C121.11 -12.96 120.62 -11.94 120.62 -10.68C120.62 -9.74 120.95 -8.92 121.62 -8.23C122.29 -7.54 123.22 -7.06 124.4 -6.78L126.85 -6.21C127.77 -6.01 128.45 -5.71 128.86 -5.32C129.29 -4.93 129.5 -4.42 129.5 -3.78C129.5 -3.02 129.18 -2.43 128.55 -2.01C127.92 -1.59 127.02 -1.38 125.84 -1.38C124.82 -1.38 123.92 -1.51 123.14 -1.78C122.35 -2.05 121.57 -2.51 120.79 -3.15Z"></path></g></g></svg>